<?xml version="1.0" standalone="no"?><!DOCTYPE svg PUBLIC "-//W3C//DTD SVG 1.1//EN" "http://www.w3.org/Graphics/SVG/1.1/DTD/svg11.dtd"><svg font-family="&quot;Source Sans Pro&quot;, &quot;Helvetica Neue&quot;, Helvetica" viewBox="0 0 2395.7743294762895 426" style="min-height: 213px;" version="1.1" xmlns="http://www.w3.org/2000/svg" xmlns:xlink="http://www.w3.org/1999/xlink"><g id="sd-region-group-1_29903"><svg id="sd-position-axis" y="20"><path d="m 120 18 h 1720" fill="none" stroke="#000000" stroke-width="2"/><text x="120" y="12" font-size="12" fill="#000000" text-anchor="middle">1</text><line x1="120" x2="120" y1="17" y2="26" stroke="#000000" stroke-width="2"/><text x="177.4637148016855" y="12" font-size="12" fill="#000000" text-anchor="middle">1000</text><line x1="177.4637148016855" x2="177.4637148016855" y1="17" y2="26" stroke="#000000" stroke-width="2"/><text x="234.98495083940873" y="12" font-size="12" fill="#000000" text-anchor="middle">2000</text><line x1="234.98495083940873" x2="234.98495083940873" y1="17" y2="26" stroke="#000000" stroke-width="2"/><text x="292.50618687713194" y="12" font-size="12" fill="#000000" text-anchor="middle">3000</text><line x1="292.50618687713194" x2="292.50618687713194" y1="17" y2="26" stroke="#000000" stroke-width="2"/><text x="350.0274229148552" y="12" font-size="12" fill="#000000" text-anchor="middle">4000</text><line x1="350.0274229148552" x2="350.0274229148552" y1="17" y2="26" stroke="#000000" stroke-width="2"/><text x="407.5486589525784" y="12" font-size="12" fill="#000000" text-anchor="middle">5000</text><line x1="407.5486589525784" x2="407.5486589525784" y1="17" y2="26" stroke="#000000" stroke-width="2"/><text x="465.06989499030163" y="12" font-size="12" fill="#000000" text-anchor="middle">6000</text><line x1="465.06989499030163" x2="465.06989499030163" y1="17" y2="26" stroke="#000000" stroke-width="2"/><text x="522.5911310280248" y="12" font-size="12" fill="#000000" text-anchor="middle">7000</text><line x1="522.5911310280248" x2="522.5911310280248" y1="17" y2="26" stroke="#000000" stroke-width="2"/><text x="580.112367065748" y="12" font-size="12" fill="#000000" text-anchor="middle">8000</text><line x1="580.112367065748" x2="580.112367065748" y1="17" y2="26" stroke="#000000" stroke-width="2"/><text x="637.6336031034714" y="12" font-size="12" fill="#000000" text-anchor="middle">9000</text><line x1="637.6336031034714" x2="637.6336031034714" y1="17" y2="26" stroke="#000000" stroke-width="2"/><text x="695.1548391411945" y="12" font-size="12" fill="#000000" text-anchor="middle">10000</text><line x1="695.1548391411945" x2="695.1548391411945" y1="17" y2="26" stroke="#000000" stroke-width="2"/><text x="752.6760751789179" y="12" font-size="12" fill="#000000" text-anchor="middle">11000</text><line x1="752.6760751789179" x2="752.6760751789179" y1="17" y2="26" stroke="#000000" stroke-width="2"/><text x="810.197311216641" y="12" font-size="12" fill="#000000" text-anchor="middle">12000</text><line x1="810.197311216641" x2="810.197311216641" y1="17" y2="26" stroke="#000000" stroke-width="2"/><text x="867.7185472543642" y="12" font-size="12" fill="#000000" text-anchor="middle">13000</text><line x1="867.7185472543642" x2="867.7185472543642" y1="17" y2="26" stroke="#000000" stroke-width="2"/><text x="925.2397832920875" y="12" font-size="12" fill="#000000" text-anchor="middle">14000</text><line x1="925.2397832920875" x2="925.2397832920875" y1="17" y2="26" stroke="#000000" stroke-width="2"/><text x="982.7610193298108" y="12" font-size="12" fill="#000000" text-anchor="middle">15000</text><line x1="982.7610193298108" x2="982.7610193298108" y1="17" y2="26" stroke="#000000" stroke-width="2"/><text x="1040.282255367534" y="12" font-size="12" fill="#000000" text-anchor="middle">16000</text><line x1="1040.282255367534" x2="1040.282255367534" y1="17" y2="26" stroke="#000000" stroke-width="2"/><text x="1097.803491405257" y="12" font-size="12" fill="#000000" text-anchor="middle">17000</text><line x1="1097.803491405257" x2="1097.803491405257" y1="17" y2="26" stroke="#000000" stroke-width="2"/><text x="1155.3247274429805" y="12" font-size="12" fill="#000000" text-anchor="middle">18000</text><line x1="1155.3247274429805" x2="1155.3247274429805" y1="17" y2="26" stroke="#000000" stroke-width="2"/><text x="1212.8459634807036" y="12" font-size="12" fill="#000000" text-anchor="middle">19000</text><line x1="1212.8459634807036" x2="1212.8459634807036" y1="17" y2="26" stroke="#000000" stroke-width="2"/><text x="1270.3671995184268" y="12" font-size="12" fill="#000000" text-anchor="middle">20000</text><line x1="1270.3671995184268" x2="1270.3671995184268" y1="17" y2="26" stroke="#000000" stroke-width="2"/><text x="1327.88843555615" y="12" font-size="12" fill="#000000" text-anchor="middle">21000</text><line x1="1327.88843555615" x2="1327.88843555615" y1="17" y2="26" stroke="#000000" stroke-width="2"/><text x="1385.4096715938733" y="12" font-size="12" fill="#000000" text-anchor="middle">22000</text><line x1="1385.4096715938733" x2="1385.4096715938733" y1="17" y2="26" stroke="#000000" stroke-width="2"/><text x="1442.9309076315967" y="12" font-size="12" fill="#000000" text-anchor="middle">23000</text><line x1="1442.9309076315967" x2="1442.9309076315967" y1="17" y2="26" stroke="#000000" stroke-width="2"/><text x="1500.4521436693196" y="12" font-size="12" fill="#000000" text-anchor="middle">24000</text><line x1="1500.4521436693196" x2="1500.4521436693196" y1="17" y2="26" stroke="#000000" stroke-width="2"/><text x="1557.973379707043" y="12" font-size="12" fill="#000000" text-anchor="middle">25000</text><line x1="1557.973379707043" x2="1557.973379707043" y1="17" y2="26" stroke="#000000" stroke-width="2"/><text x="1615.4946157447664" y="12" font-size="12" fill="#000000" text-anchor="middle">26000</text><line x1="1615.4946157447664" x2="1615.4946157447664" y1="17" y2="26" stroke="#000000" stroke-width="2"/><text x="1673.0158517824896" y="12" font-size="12" fill="#000000" text-anchor="middle">27000</text><line x1="1673.0158517824896" x2="1673.0158517824896" y1="17" y2="26" stroke="#000000" stroke-width="2"/><text x="1730.5370878202125" y="12" font-size="12" fill="#000000" text-anchor="middle">28000</text><line x1="1730.5370878202125" x2="1730.5370878202125" y1="17" y2="26" stroke="#000000" stroke-width="2"/><text x="1788.0583238579359" y="12" font-size="12" fill="#000000" text-anchor="middle">29000</text><line x1="1788.0583238579359" x2="1788.0583238579359" y1="17" y2="26" stroke="#000000" stroke-width="2"/><text x="1840" y="12" font-size="12" fill="#000000" text-anchor="middle">29903</text><line x1="1840" x2="1840" y1="17" y2="26" stroke="#000000" stroke-width="2"/></svg><svg id="sd-position-group-NA" y="45"><g><line x1="120" x2="135.18560631395894" y1="39" y2="39" stroke-width="2" stroke="#333"/></g><g><rect x="135.24312754999664" y="24" width="31.00394622433282" height="30" rx="5" ry="5" stroke="#ffffff" stroke-opacity="0.8" stroke-width="2" fill="#d8d8d8"/></g><g><rect x="166.3045950103672" y="24" width="110.03812454016455" height="30" rx="5" ry="5" stroke="#ffffff" stroke-opacity="0.8" stroke-width="2" fill="#d8d8d8"/><text x="174.3045950103672" y="39" font-size="16" dominant-baseline="central" fill="#505050">nsp2</text></g><g><rect x="276.40024078656944" y="24" width="335.57889104407735" height="30" rx="5" ry="5" stroke="#ffffff" stroke-opacity="0.8" stroke-width="2" fill="#cab2d6"/><text x="284.40024078656944" y="39" font-size="16" dominant-baseline="central" fill="#6a3d9a">PL</text></g><g><rect x="612.0366530666845" y="24" width="86.22433282054703" height="30" rx="5" ry="5" stroke="#ffffff" stroke-opacity="0.8" stroke-width="2" fill="#d8d8d8"/><text x="620.0366530666845" y="39" font-size="16" dominant-baseline="central" fill="#505050">nsp4</text></g><g><rect x="698.3185071232693" y="24" width="52.74697344659228" height="30" rx="5" ry="5" stroke="#ffffff" stroke-opacity="0.8" stroke-width="2" fill="#fdbf6f"/><text x="706.3185071232693" y="39" font-size="16" dominant-baseline="central" fill="#ff7f00">3CL</text></g><g><rect x="751.1230018058993" y="24" width="49.9859541167815" height="30" rx="5" ry="5" stroke="#ffffff" stroke-opacity="0.8" stroke-width="2" fill="#d8d8d8"/><text x="759.1230018058993" y="39" font-size="16" dominant-baseline="central" fill="#505050">nsp6</text></g><g><rect x="801.1664771587185" y="24" width="14.265266537355274" height="30" rx="5" ry="5" stroke="#ffffff" stroke-opacity="0.8" stroke-width="2" fill="#d8d8d8"/></g><g><rect x="815.4892649321116" y="24" width="34.110092970369806" height="30" rx="5" ry="5" stroke="#ffffff" stroke-opacity="0.8" stroke-width="2" fill="#d8d8d8"/></g><g><rect x="849.6568791385191" y="24" width="19.4421777807504" height="30" rx="5" ry="5" stroke="#ffffff" stroke-opacity="0.8" stroke-width="2" fill="#d8d8d8"/></g><g><rect x="869.1565781553073" y="24" width="23.928834191692886" height="30" rx="5" ry="5" stroke="#ffffff" stroke-opacity="0.8" stroke-width="2" fill="#d8d8d8"/></g><g><rect x="893.142933583038" y="24" width="160.71433348939877" height="30" rx="5" ry="5" stroke="#ffffff" stroke-opacity="0.8" stroke-width="2" fill="#a6cee3"/><text x="901.142933583038" y="39" font-size="16" dominant-baseline="central" fill="#1f78b4">RdRP</text></g><g><rect x="1053.9147883084743" y="24" width="103.65326733997722" height="30" rx="5" ry="5" stroke="#ffffff" stroke-opacity="0.8" stroke-width="2" fill="#d8d8d8"/><text x="1061.9147883084743" y="39" font-size="16" dominant-baseline="central" fill="#505050">nsp13</text></g><g><rect x="1157.6255768844894" y="24" width="90.88355293960262" height="30" rx="5" ry="5" stroke="#ffffff" stroke-opacity="0.8" stroke-width="2" fill="#d8d8d8"/><text x="1165.6255768844894" y="39" font-size="16" dominant-baseline="central" fill="#505050">nsp14</text></g><g><rect x="1248.5666510601297" y="24" width="59.649521771119" height="30" rx="5" ry="5" stroke="#ffffff" stroke-opacity="0.8" stroke-width="2" fill="#d8d8d8"/><text x="1256.5666510601297" y="39" font-size="16" dominant-baseline="central" fill="#505050">nsp15</text></g><g><rect x="1308.2736940672864" y="24" width="51.36646378168689" height="30" rx="5" ry="5" stroke="#ffffff" stroke-opacity="0.8" stroke-width="2" fill="#d8d8d8"/></g><g><rect x="1360.2728914453883" y="24" width="219.7886429001403" height="30" rx="5" ry="5" stroke="#ffffff" stroke-opacity="0.8" stroke-width="2" fill="#b2df8a"/><text x="1368.2728914453883" y="39" font-size="16" dominant-baseline="central" fill="#33a02c">Spike</text></g><g><rect x="1580.579225469868" y="24" width="47.570062203197494" height="30" rx="5" ry="5" stroke="#ffffff" stroke-opacity="0.8" stroke-width="2" fill="#d8d8d8"/></g><g><rect x="1629.5873185740086" y="24" width="13.0573205805631" height="30" rx="5" ry="5" stroke="#ffffff" stroke-opacity="0.8" stroke-width="2" fill="#d8d8d8"/></g><g><rect x="1645.5782221924956" y="24" width="38.42418567319896" height="30" rx="5" ry="5" stroke="#ffffff" stroke-opacity="0.8" stroke-width="2" fill="#d8d8d8"/><text x="1653.5782221924956" y="39" font-size="16" dominant-baseline="central" fill="#505050">M</text></g><g><rect x="1684.6351414621097" y="24" width="10.641428666978754" height="30" rx="5" ry="5" stroke="#ffffff" stroke-opacity="0.8" stroke-width="2" fill="#d8d8d8"/></g><g><rect x="1695.6792187813523" y="24" width="20.995251153769004" height="30" rx="5" ry="5" stroke="#ffffff" stroke-opacity="0.8" stroke-width="2" fill="#d8d8d8"/></g><g><rect x="1716.5019062270082" y="24" width="7.53528192094177" height="30" rx="5" ry="5" stroke="#ffffff" stroke-opacity="0.8" stroke-width="2" fill="#d8d8d8"/></g><g><rect x="1724.4398368002142" y="24" width="20.995251153768777" height="30" rx="5" ry="5" stroke="#ffffff" stroke-opacity="0.8" stroke-width="2" fill="#d8d8d8"/></g><g><rect x="1746.297906494549" y="24" width="72.4192361714936" height="30" rx="5" ry="5" stroke="#ffffff" stroke-opacity="0.8" stroke-width="2" fill="#d8d8d8"/><text x="1754.297906494549" y="39" font-size="16" dominant-baseline="central" fill="#505050">N</text></g><g><rect x="1820.1551735669855" y="24" width="6.67246338037603" height="30" rx="5" ry="5" stroke="#ffffff" stroke-opacity="0.8" stroke-width="2" fill="#d8d8d8"/></g><g><line x1="1826.885158183399" x2="1840" y1="39" y2="39" stroke-width="2" stroke="#333"/></g><g><path d="m 278.78509798675674 21 l 4 4 l 4 -4 m -4 4 v 245" stroke="#e0e0e0" fill="none" stroke-width="1"/><text transform="translate(282.78509798675674, 274) rotate(-60)" fill="#a0a0a0" dominant-baseline="central" text-anchor="end" font-family="Arial Narrow">PL:K38R</text></g><g><path d="m 490.5207678416159 21 l 4 4 l 4 -4 m -4 4 v 35 c 0 5 0 5 -5 5 h -12 c -5 0 -5 0 -5 5 v 200" stroke="#e0e0e0" fill="none" stroke-width="1"/><text transform="translate(472.5207678416159, 274) rotate(-60)" fill="#a0a0a0" dominant-baseline="central" text-anchor="end" font-family="Arial Narrow">PL:S1265I</text></g><g><path d="m 490.6933315497291 21 l 4 4 l 4 -4 m -4 4 v 245" stroke="#e0e0e0" fill="none" stroke-width="1"/><text transform="translate(494.6933315497291, 274) rotate(-60)" fill="#a0a0a0" dominant-baseline="central" text-anchor="end" font-family="Arial Narrow">PL:Δ1266</text></g><g><path d="m 598.7182128285733 21 l 4 4 l 4 -4 m -4 4 v 245" stroke="#e0e0e0" fill="none" stroke-width="1"/><text transform="translate(602.7182128285733, 274) rotate(-60)" fill="#a0a0a0" dominant-baseline="central" text-anchor="end" font-family="Arial Narrow">PL:A1892T</text></g><g><path d="m 692.7654337502508 21 l 4 4 l 4 -4 m -4 4 v 245" stroke="#e0e0e0" fill="none" stroke-width="1"/><text transform="translate(696.7654337502508, 274) rotate(-60)" fill="#a0a0a0" dominant-baseline="central" text-anchor="end" font-family="Arial Narrow">nsp4:T492I</text></g><g><path d="m 716.9243528860945 21 l 4 4 l 4 -4 m -4 4 v 245" stroke="#000000" fill="none" stroke-width="1"/><text transform="translate(720.9243528860945, 274) rotate(-60)" fill="#000000" font-weight="bold" dominant-baseline="central" text-anchor="end" font-family="Arial Narrow">3CL:P132H</text></g><g><path d="m 765.0696274496688 21 l 4 4 l 4 -4 m -4 4 v 35 c 0 5 0 5 -5 5 h -12 c -5 0 -5 0 -5 5 v 200" stroke="#e0e0e0" fill="none" stroke-width="1"/><text transform="translate(747.0696274496688, 274) rotate(-60)" fill="#a0a0a0" dominant-baseline="central" text-anchor="end" font-family="Arial Narrow">nsp6:Δ105-107</text></g><g><path d="m 779.5649789311752 21 l 4 4 l 4 -4 m -4 4 v 245" stroke="#e0e0e0" fill="none" stroke-width="1"/><text transform="translate(783.5649789311752, 274) rotate(-60)" fill="#a0a0a0" dominant-baseline="central" text-anchor="end" font-family="Arial Narrow">nsp6:I189V</text></g><g><path d="m 944.6509263594409 21 l 4 4 l 4 -4 m -4 4 v 245" stroke="#000000" fill="none" stroke-width="1"/><text transform="translate(948.6509263594409, 274) rotate(-60)" fill="#000000" font-weight="bold" dominant-baseline="central" text-anchor="end" font-family="Arial Narrow">RdRP:P323L</text></g><g><path d="m 1160.7006889171291 21 l 4 4 l 4 -4 m -4 4 v 245" stroke="#e0e0e0" fill="none" stroke-width="1"/><text transform="translate(1164.7006889171291, 274) rotate(-60)" fill="#a0a0a0" dominant-baseline="central" text-anchor="end" font-family="Arial Narrow">nsp14:I42V</text></g><g><path d="m 1367.6620961808576 21 l 4 4 l 4 -4 m -4 4 v 245" stroke="#000000" fill="none" stroke-width="1"/><text transform="translate(1371.6620961808576, 274) rotate(-60)" fill="#000000" font-weight="bold" dominant-baseline="central" text-anchor="end" font-family="Arial Narrow">A67V</text></g><g><path d="m 1368.0072235970838 21 l 4 4 l 4 -4 m -4 4 v 235 c 0 5 0 5 5 5 h 12 c 5 0 5 0 5 5 v 0" stroke="#000000" fill="none" stroke-width="1"/><text transform="translate(1394.0072235970838, 274) rotate(-60)" fill="#000000" font-weight="bold" dominant-baseline="central" text-anchor="end" font-family="Arial Narrow">Δ69/70</text></g><g><path d="m 1372.493880008026 21 l 4 4 l 4 -4 m -4 4 v 230 c 0 5 0 5 5 5 h 29.51334358905774 c 5 0 5 0 5 5 v 5" stroke="#000000" fill="none" stroke-width="1"/><text transform="translate(1416.0072235970838, 274) rotate(-60)" fill="#000000" font-weight="bold" dominant-baseline="central" text-anchor="end" font-family="Arial Narrow">T95I</text></g><g><path d="m 1380.604374289345 21 l 4 4 l 4 -4 m -4 4 v 225 c 0 5 0 5 5 5 h 43.402849307738734 c 5 0 5 0 5 5 v 10" stroke="#000000" fill="none" stroke-width="1"/><text transform="translate(1438.0072235970838, 274) rotate(-60)" fill="#000000" font-weight="bold" dominant-baseline="central" text-anchor="end" font-family="Arial Narrow">G142D</text></g><g><path d="m 1380.7769379974582 21 l 4 4 l 4 -4 m -4 4 v 220 c 0 5 0 5 5 5 h 65.23028559962563 c 5 0 5 0 5 5 v 15" stroke="#000000" fill="none" stroke-width="1"/><text transform="translate(1460.0072235970838, 274) rotate(-60)" fill="#000000" font-weight="bold" dominant-baseline="central" text-anchor="end" font-family="Arial Narrow">Δ143-145</text></g><g><path d="m 1392.5112701491537 21 l 4 4 l 4 -4 m -4 4 v 215 c 0 5 0 5 5 5 h 75.4959534479301 c 5 0 5 0 5 5 v 20" stroke="#000000" fill="none" stroke-width="1"/><text transform="translate(1482.0072235970838, 274) rotate(-60)" fill="#000000" font-weight="bold" dominant-baseline="central" text-anchor="end" font-family="Arial Narrow">N211I</text></g><g><path d="m 1392.683833857267 21 l 4 4 l 4 -4 m -4 4 v 210 c 0 5 0 5 5 5 h 97.32338973981678 c 5 0 5 0 5 5 v 25" stroke="#000000" fill="none" stroke-width="1"/><text transform="translate(1504.0072235970838, 274) rotate(-60)" fill="#000000" font-weight="bold" dominant-baseline="central" text-anchor="end" font-family="Arial Narrow">Δ212</text></g><g><path d="m 1393.0289612734932 21 l 4 4 l 4 -4 m -4 4 v 205 c 0 5 0 5 5 5 h 118.97826232359057 c 5 0 5 0 5 5 v 30" stroke="#000000" fill="none" stroke-width="1"/><text transform="translate(1526.0072235970838, 274) rotate(-60)" fill="#000000" font-weight="bold" dominant-baseline="central" text-anchor="end" font-family="Arial Narrow">R214ins</text></g><g><path d="m 1414.5994247876397 21 l 4 4 l 4 -4 m -4 4 v 200 c 0 5 0 5 5 5 h 119.4077988094441 c 5 0 5 0 5 5 v 35" stroke="#000000" fill="none" stroke-width="1"/><text transform="translate(1548.0072235970838, 274) rotate(-60)" fill="#000000" font-weight="bold" dominant-baseline="central" text-anchor="end" font-family="Arial Narrow">G339D</text></g><g><path d="m 1420.121463447261 21 l 4 4 l 4 -4 m -4 4 v 195 c 0 5 0 5 5 5 h 135.88576014982277 c 5 0 5 0 5 5 v 40" stroke="#000000" fill="none" stroke-width="1"/><text transform="translate(1570.0072235970838, 274) rotate(-60)" fill="#000000" font-weight="bold" dominant-baseline="central" text-anchor="end" font-family="Arial Narrow">S371L</text></g><g><path d="m 1420.4665908634875 21 l 4 4 l 4 -4 m -4 4 v 190 c 0 5 0 5 5 5 h 157.54063273359634 c 5 0 5 0 5 5 v 45" stroke="#000000" fill="none" stroke-width="1"/><text transform="translate(1592.0072235970838, 274) rotate(-60)" fill="#000000" font-weight="bold" dominant-baseline="central" text-anchor="end" font-family="Arial Narrow">S373P</text></g><g><path d="m 1420.811718279714 21 l 4 4 l 4 -4 m -4 4 v 185 c 0 5 0 5 5 5 h 179.1955053173699 c 5 0 5 0 5 5 v 50" stroke="#000000" fill="none" stroke-width="1"/><text transform="translate(1614.0072235970838, 274) rotate(-60)" fill="#000000" font-weight="bold" dominant-baseline="central" text-anchor="end" font-family="Arial Narrow">S375F</text></g><g><path d="m 1428.059394020467 21 l 4 4 l 4 -4 m -4 4 v 180 c 0 5 0 5 5 5 h 193.94782957661687 c 5 0 5 0 5 5 v 55" stroke="#000000" fill="none" stroke-width="1"/><text transform="translate(1636.0072235970838, 274) rotate(-60)" fill="#000000" font-weight="bold" dominant-baseline="central" text-anchor="end" font-family="Arial Narrow">K417N</text></g><g><path d="m 1432.0283593070696 21 l 4 4 l 4 -4 m -4 4 v 175 c 0 5 0 5 5 5 h 211.97886429001414 c 5 0 5 0 5 5 v 60" stroke="#000000" fill="none" stroke-width="1"/><text transform="translate(1658.0072235970838, 274) rotate(-60)" fill="#000000" font-weight="bold" dominant-baseline="central" text-anchor="end" font-family="Arial Narrow">N440K</text></g><g><path d="m 1433.063741555749 21 l 4 4 l 4 -4 m -4 4 v 170 c 0 5 0 5 5 5 h 232.94348204133485 c 5 0 5 0 5 5 v 65" stroke="#000000" fill="none" stroke-width="1"/><text transform="translate(1680.0072235970838, 274) rotate(-60)" fill="#000000" font-weight="bold" dominant-baseline="central" text-anchor="end" font-family="Arial Narrow">G446S</text></g><g><path d="m 1438.4132165072572 21 l 4 4 l 4 -4 m -4 4 v 165 c 0 5 0 5 5 5 h 249.59400708982662 c 5 0 5 0 5 5 v 70" stroke="#000000" fill="none" stroke-width="1"/><text transform="translate(1702.0072235970838, 274) rotate(-60)" fill="#000000" font-weight="bold" dominant-baseline="central" text-anchor="end" font-family="Arial Narrow">S477N</text></g><g><path d="m 1438.5857802153703 21 l 4 4 l 4 -4 m -4 4 v 160 c 0 5 0 5 5 5 h 271.4214433817135 c 5 0 5 0 5 5 v 75" stroke="#000000" fill="none" stroke-width="1"/><text transform="translate(1724.0072235970838, 274) rotate(-60)" fill="#000000" font-weight="bold" dominant-baseline="central" text-anchor="end" font-family="Arial Narrow">T478K</text></g><g><path d="m 1439.6211624640491 21 l 4 4 l 4 -4 m -4 4 v 155 c 0 5 0 5 5 5 h 292.3860611330347 c 5 0 5 0 5 5 v 80" stroke="#000000" fill="none" stroke-width="1"/><text transform="translate(1746.0072235970838, 274) rotate(-60)" fill="#000000" font-weight="bold" dominant-baseline="central" text-anchor="end" font-family="Arial Narrow">E484A</text></g><g><path d="m 1441.174235837068 21 l 4 4 l 4 -4 m -4 4 v 150 c 0 5 0 5 5 5 h 312.83298776001584 c 5 0 5 0 5 5 v 85" stroke="#000000" fill="none" stroke-width="1"/><text transform="translate(1768.0072235970838, 274) rotate(-60)" fill="#000000" font-weight="bold" dominant-baseline="central" text-anchor="end" font-family="Arial Narrow">Q493R</text></g><g><path d="m 1441.6919269614073 21 l 4 4 l 4 -4 m -4 4 v 145 c 0 5 0 5 5 5 h 334.31529663567653 c 5 0 5 0 5 5 v 90" stroke="#000000" fill="none" stroke-width="1"/><text transform="translate(1790.0072235970838, 274) rotate(-60)" fill="#000000" font-weight="bold" dominant-baseline="central" text-anchor="end" font-family="Arial Narrow">G496S</text></g><g><path d="m 1442.0370543776337 21 l 4 4 l 4 -4 m -4 4 v 140 c 0 5 0 5 5 5 h 355.9701692194501 c 5 0 5 0 5 5 v 95" stroke="#000000" fill="none" stroke-width="1"/><text transform="translate(1812.0072235970838, 274) rotate(-60)" fill="#000000" font-weight="bold" dominant-baseline="central" text-anchor="end" font-family="Arial Narrow">Q498R</text></g><g><path d="m 1442.554745501973 21 l 4 4 l 4 -4 m -4 4 v 135 c 0 5 0 5 5 5 h 377.4524780951108 c 5 0 5 0 5 5 v 100" stroke="#000000" fill="none" stroke-width="1"/><text transform="translate(1834.0072235970838, 274) rotate(-60)" fill="#000000" font-weight="bold" dominant-baseline="central" text-anchor="end" font-family="Arial Narrow">N501Y</text></g><g><path d="m 1443.2450003344259 21 l 4 4 l 4 -4 m -4 4 v 130 c 0 5 0 5 5 5 h 398.7622232626579 c 5 0 5 0 5 5 v 105" stroke="#000000" fill="none" stroke-width="1"/><text transform="translate(1856.0072235970838, 274) rotate(-60)" fill="#000000" font-weight="bold" dominant-baseline="central" text-anchor="end" font-family="Arial Narrow">Y505H</text></g><g><path d="m 1450.492676075179 21 l 4 4 l 4 -4 m -4 4 v 125 c 0 5 0 5 5 5 h 413.5145475219049 c 5 0 5 0 5 5 v 110" stroke="#000000" fill="none" stroke-width="1"/><text transform="translate(1878.0072235970838, 274) rotate(-60)" fill="#000000" font-weight="bold" dominant-baseline="central" text-anchor="end" font-family="Arial Narrow">T547K</text></g><g><path d="m 1462.0544445187613 21 l 4 4 l 4 -4 m -4 4 v 120 c 0 5 0 5 5 5 h 423.95277907832246 c 5 0 5 0 5 5 v 115" stroke="#000000" fill="none" stroke-width="1"/><text transform="translate(1900.0072235970838, 274) rotate(-60)" fill="#000000" font-weight="bold" dominant-baseline="central" text-anchor="end" font-family="Arial Narrow">D614G</text></g><g><path d="m 1469.1295565514013 21 l 4 4 l 4 -4 m -4 4 v 115 c 0 5 0 5 5 5 h 438.87766704568253 c 5 0 5 0 5 5 v 120" stroke="#000000" fill="none" stroke-width="1"/><text transform="translate(1922.0072235970838, 274) rotate(-60)" fill="#000000" font-weight="bold" dominant-baseline="central" text-anchor="end" font-family="Arial Narrow">H655Y</text></g><g><path d="m 1473.2710855461175 21 l 4 4 l 4 -4 m -4 4 v 110 c 0 5 0 5 5 5 h 456.73613805096625 c 5 0 5 0 5 5 v 125" stroke="#000000" fill="none" stroke-width="1"/><text transform="translate(1944.0072235970838, 274) rotate(-60)" fill="#000000" font-weight="bold" dominant-baseline="central" text-anchor="end" font-family="Arial Narrow">N679K</text></g><g><path d="m 1473.6162129623438 21 l 4 4 l 4 -4 m -4 4 v 105 c 0 5 0 5 5 5 h 478.39101063474004 c 5 0 5 0 5 5 v 130" stroke="#000000" fill="none" stroke-width="1"/><text transform="translate(1966.0072235970838, 274) rotate(-60)" fill="#000000" font-weight="bold" dominant-baseline="central" text-anchor="end" font-family="Arial Narrow">P681H</text></g><g><path d="m 1487.939000735737 21 l 4 4 l 4 -4 m -4 4 v 100 c 0 5 0 5 5 5 h 486.06822286134684 c 5 0 5 0 5 5 v 135" stroke="#000000" fill="none" stroke-width="1"/><text transform="translate(1988.0072235970838, 274) rotate(-60)" fill="#000000" font-weight="bold" dominant-baseline="central" text-anchor="end" font-family="Arial Narrow">N764K</text></g><g><path d="m 1493.461039395358 21 l 4 4 l 4 -4 m -4 4 v 95 c 0 5 0 5 5 5 h 502.54618420172574 c 5 0 5 0 5 5 v 140" stroke="#000000" fill="none" stroke-width="1"/><text transform="translate(2010.0072235970838, 274) rotate(-60)" fill="#000000" font-weight="bold" dominant-baseline="central" text-anchor="end" font-family="Arial Narrow">D796Y</text></g><g><path d="m 1503.8148618821483 21 l 4 4 l 4 -4 m -4 4 v 90 c 0 5 0 5 5 5 h 514.1923617149355 c 5 0 5 0 5 5 v 145" stroke="#000000" fill="none" stroke-width="1"/><text transform="translate(2032.0072235970838, 274) rotate(-60)" fill="#000000" font-weight="bold" dominant-baseline="central" text-anchor="end" font-family="Arial Narrow">N856K</text></g><g><path d="m 1520.726105277239 21 l 4 4 l 4 -4 m -4 4 v 85 c 0 5 0 5 5 5 h 519.2811183198448 c 5 0 5 0 5 5 v 150" stroke="#000000" fill="none" stroke-width="1"/><text transform="translate(2054.007223597084, 274) rotate(-60)" fill="#000000" font-weight="bold" dominant-baseline="central" text-anchor="end" font-family="Arial Narrow">Q954H</text></g><g><path d="m 1523.3145608989366 21 l 4 4 l 4 -4 m -4 4 v 80 c 0 5 0 5 5 5 h 538.6926626981472 c 5 0 5 0 5 5 v 155" stroke="#000000" fill="none" stroke-width="1"/><text transform="translate(2076.007223597084, 274) rotate(-60)" fill="#000000" font-weight="bold" dominant-baseline="central" text-anchor="end" font-family="Arial Narrow">N969K</text></g><g><path d="m 1525.3853253962945 21 l 4 4 l 4 -4 m -4 4 v 75 c 0 5 0 5 5 5 h 558.6218982007892 c 5 0 5 0 5 5 v 160" stroke="#000000" fill="none" stroke-width="1"/><text transform="translate(2098.007223597084, 274) rotate(-60)" fill="#000000" font-weight="bold" dominant-baseline="central" text-anchor="end" font-family="Arial Narrow">L981F</text></g><g><path d="m 1626.9678282389139 21 l 4 4 l 4 -4 m -4 4 v 70 c 0 5 0 5 5 5 h 479.03939535816994 c 5 0 5 0 5 5 v 165" stroke="#e0e0e0" fill="none" stroke-width="1"/><text transform="translate(2120.007223597084, 274) rotate(-60)" fill="#a0a0a0" dominant-baseline="central" text-anchor="end" font-family="Arial Narrow">E:T9I</text></g><g><path d="m 1641.923349608722 21 l 4 4 l 4 -4 m -4 4 v 65 c 0 5 0 5 5 5 h 486.0838739883618 c 5 0 5 0 5 5 v 170" stroke="#e0e0e0" fill="none" stroke-width="1"/><text transform="translate(2142.007223597084, 274) rotate(-60)" fill="#a0a0a0" dominant-baseline="central" text-anchor="end" font-family="Arial Narrow">M:D3G</text></g><g><path d="m 1644.6843689385328 21 l 4 4 l 4 -4 m -4 4 v 60 c 0 5 0 5 5 5 h 505.322854658551 c 5 0 5 0 5 5 v 175" stroke="#e0e0e0" fill="none" stroke-width="1"/><text transform="translate(2164.007223597084, 274) rotate(-60)" fill="#a0a0a0" dominant-baseline="central" text-anchor="end" font-family="Arial Narrow">M:Q19E</text></g><g><path d="m 1652.277172095512 21 l 4 4 l 4 -4 m -4 4 v 55 c 0 5 0 5 5 5 h 519.7300515015718 c 5 0 5 0 5 5 v 180" stroke="#e0e0e0" fill="none" stroke-width="1"/><text transform="translate(2186.007223597084, 274) rotate(-60)" fill="#a0a0a0" dominant-baseline="central" text-anchor="end" font-family="Arial Narrow">M:A63T</text></g><g><path d="m 1744.3686709919068 21 l 4 4 l 4 -4 m -4 4 v 50 c 0 5 0 5 5 5 h 449.638552605177 c 5 0 5 0 5 5 v 185" stroke="#e0e0e0" fill="none" stroke-width="1"/><text transform="translate(2208.007223597084, 274) rotate(-60)" fill="#a0a0a0" dominant-baseline="central" text-anchor="end" font-family="Arial Narrow">N:P13L</text></g><g><path d="m 1747.4748177379438 21 l 4 4 l 4 -4 m -4 4 v 45 c 0 5 0 5 5 5 h 468.53240585914 c 5 0 5 0 5 5 v 190" stroke="#e0e0e0" fill="none" stroke-width="1"/><text transform="translate(2230.007223597084, 274) rotate(-60)" fill="#a0a0a0" dominant-baseline="central" text-anchor="end" font-family="Arial Narrow">N:Δ31-33</text></g><g><path d="m 1777.1557755334093 21 l 4 4 l 4 -4 m -4 4 v 40 c 0 5 0 5 5 5 h 460.8514480636745 c 5 0 5 0 5 5 v 195" stroke="#e0e0e0" fill="none" stroke-width="1"/><text transform="translate(2252.007223597084, 274) rotate(-60)" fill="#a0a0a0" dominant-baseline="central" text-anchor="end" font-family="Arial Narrow">N:R203K</text></g><g><path d="m 1777.3283392415224 21 l 4 4 l 4 -4 m -4 4 v 35 c 0 5 0 5 5 5 h 482.6788843555614 c 5 0 5 0 5 5 v 200" stroke="#e0e0e0" fill="none" stroke-width="1"/><text transform="translate(2274.007223597084, 274) rotate(-60)" fill="#a0a0a0" dominant-baseline="central" text-anchor="end" font-family="Arial Narrow">N:G204R</text></g></svg></g></svg>