<?xml version="1.0" standalone="no"?><!DOCTYPE svg PUBLIC "-//W3C//DTD SVG 1.1//EN" "http://www.w3.org/Graphics/SVG/1.1/DTD/svg11.dtd"><svg font-family="&quot;Source Sans Pro&quot;, &quot;Helvetica Neue&quot;, Helvetica" viewBox="0 0 1960 289" style="min-height: 144.5px;" version="1.1" xmlns="http://www.w3.org/2000/svg" xmlns:xlink="http://www.w3.org/1999/xlink"><g id="sd-region-group-1_29903"><svg id="sd-position-axis" y="20"><path d="m 120 18 h 1720" fill="none" stroke="#000000" stroke-width="2"/><text x="120" y="12" font-size="12" fill="#000000" text-anchor="middle">1</text><line x1="120" x2="120" y1="17" y2="26" stroke="#000000" stroke-width="2"/><text x="177.4637148016855" y="12" font-size="12" fill="#000000" text-anchor="middle">1000</text><line x1="177.4637148016855" x2="177.4637148016855" y1="17" y2="26" stroke="#000000" stroke-width="2"/><text x="234.98495083940873" y="12" font-size="12" fill="#000000" text-anchor="middle">2000</text><line x1="234.98495083940873" x2="234.98495083940873" y1="17" y2="26" stroke="#000000" stroke-width="2"/><text x="292.50618687713194" y="12" font-size="12" fill="#000000" text-anchor="middle">3000</text><line x1="292.50618687713194" x2="292.50618687713194" y1="17" y2="26" stroke="#000000" stroke-width="2"/><text x="350.0274229148552" y="12" font-size="12" fill="#000000" text-anchor="middle">4000</text><line x1="350.0274229148552" x2="350.0274229148552" y1="17" y2="26" stroke="#000000" stroke-width="2"/><text x="407.5486589525784" y="12" font-size="12" fill="#000000" text-anchor="middle">5000</text><line x1="407.5486589525784" x2="407.5486589525784" y1="17" y2="26" stroke="#000000" stroke-width="2"/><text x="465.06989499030163" y="12" font-size="12" fill="#000000" text-anchor="middle">6000</text><line x1="465.06989499030163" x2="465.06989499030163" y1="17" y2="26" stroke="#000000" stroke-width="2"/><text x="522.5911310280248" y="12" font-size="12" fill="#000000" text-anchor="middle">7000</text><line x1="522.5911310280248" x2="522.5911310280248" y1="17" y2="26" stroke="#000000" stroke-width="2"/><text x="580.112367065748" y="12" font-size="12" fill="#000000" text-anchor="middle">8000</text><line x1="580.112367065748" x2="580.112367065748" y1="17" y2="26" stroke="#000000" stroke-width="2"/><text x="637.6336031034714" y="12" font-size="12" fill="#000000" text-anchor="middle">9000</text><line x1="637.6336031034714" x2="637.6336031034714" y1="17" y2="26" stroke="#000000" stroke-width="2"/><text x="695.1548391411945" y="12" font-size="12" fill="#000000" text-anchor="middle">10000</text><line x1="695.1548391411945" x2="695.1548391411945" y1="17" y2="26" stroke="#000000" stroke-width="2"/><text x="752.6760751789179" y="12" font-size="12" fill="#000000" text-anchor="middle">11000</text><line x1="752.6760751789179" x2="752.6760751789179" y1="17" y2="26" stroke="#000000" stroke-width="2"/><text x="810.197311216641" y="12" font-size="12" fill="#000000" text-anchor="middle">12000</text><line x1="810.197311216641" x2="810.197311216641" y1="17" y2="26" stroke="#000000" stroke-width="2"/><text x="867.7185472543642" y="12" font-size="12" fill="#000000" text-anchor="middle">13000</text><line x1="867.7185472543642" x2="867.7185472543642" y1="17" y2="26" stroke="#000000" stroke-width="2"/><text x="925.2397832920875" y="12" font-size="12" fill="#000000" text-anchor="middle">14000</text><line x1="925.2397832920875" x2="925.2397832920875" y1="17" y2="26" stroke="#000000" stroke-width="2"/><text x="982.7610193298108" y="12" font-size="12" fill="#000000" text-anchor="middle">15000</text><line x1="982.7610193298108" x2="982.7610193298108" y1="17" y2="26" stroke="#000000" stroke-width="2"/><text x="1040.282255367534" y="12" font-size="12" fill="#000000" text-anchor="middle">16000</text><line x1="1040.282255367534" x2="1040.282255367534" y1="17" y2="26" stroke="#000000" stroke-width="2"/><text x="1097.803491405257" y="12" font-size="12" fill="#000000" text-anchor="middle">17000</text><line x1="1097.803491405257" x2="1097.803491405257" y1="17" y2="26" stroke="#000000" stroke-width="2"/><text x="1155.3247274429805" y="12" font-size="12" fill="#000000" text-anchor="middle">18000</text><line x1="1155.3247274429805" x2="1155.3247274429805" y1="17" y2="26" stroke="#000000" stroke-width="2"/><text x="1212.8459634807036" y="12" font-size="12" fill="#000000" text-anchor="middle">19000</text><line x1="1212.8459634807036" x2="1212.8459634807036" y1="17" y2="26" stroke="#000000" stroke-width="2"/><text x="1270.3671995184268" y="12" font-size="12" fill="#000000" text-anchor="middle">20000</text><line x1="1270.3671995184268" x2="1270.3671995184268" y1="17" y2="26" stroke="#000000" stroke-width="2"/><text x="1327.88843555615" y="12" font-size="12" fill="#000000" text-anchor="middle">21000</text><line x1="1327.88843555615" x2="1327.88843555615" y1="17" y2="26" stroke="#000000" stroke-width="2"/><text x="1385.4096715938733" y="12" font-size="12" fill="#000000" text-anchor="middle">22000</text><line x1="1385.4096715938733" x2="1385.4096715938733" y1="17" y2="26" stroke="#000000" stroke-width="2"/><text x="1442.9309076315967" y="12" font-size="12" fill="#000000" text-anchor="middle">23000</text><line x1="1442.9309076315967" x2="1442.9309076315967" y1="17" y2="26" stroke="#000000" stroke-width="2"/><text x="1500.4521436693196" y="12" font-size="12" fill="#000000" text-anchor="middle">24000</text><line x1="1500.4521436693196" x2="1500.4521436693196" y1="17" y2="26" stroke="#000000" stroke-width="2"/><text x="1557.973379707043" y="12" font-size="12" fill="#000000" text-anchor="middle">25000</text><line x1="1557.973379707043" x2="1557.973379707043" y1="17" y2="26" stroke="#000000" stroke-width="2"/><text x="1615.4946157447664" y="12" font-size="12" fill="#000000" text-anchor="middle">26000</text><line x1="1615.4946157447664" x2="1615.4946157447664" y1="17" y2="26" stroke="#000000" stroke-width="2"/><text x="1673.0158517824896" y="12" font-size="12" fill="#000000" text-anchor="middle">27000</text><line x1="1673.0158517824896" x2="1673.0158517824896" y1="17" y2="26" stroke="#000000" stroke-width="2"/><text x="1730.5370878202125" y="12" font-size="12" fill="#000000" text-anchor="middle">28000</text><line x1="1730.5370878202125" x2="1730.5370878202125" y1="17" y2="26" stroke="#000000" stroke-width="2"/><text x="1788.0583238579359" y="12" font-size="12" fill="#000000" text-anchor="middle">29000</text><line x1="1788.0583238579359" x2="1788.0583238579359" y1="17" y2="26" stroke="#000000" stroke-width="2"/><text x="1840" y="12" font-size="12" fill="#000000" text-anchor="middle">29903</text><line x1="1840" x2="1840" y1="17" y2="26" stroke="#000000" stroke-width="2"/></svg><svg id="sd-position-group-NA" y="45"><g><line x1="120" x2="135.18560631395894" y1="39" y2="39" stroke-width="2" stroke="#333"/></g><g><rect x="135.24312754999664" y="24" width="31.00394622433282" height="30" rx="5" ry="5" stroke="#ffffff" stroke-opacity="0.8" stroke-width="2" fill="#d8d8d8"/></g><g><rect x="166.3045950103672" y="24" width="110.03812454016455" height="30" rx="5" ry="5" stroke="#ffffff" stroke-opacity="0.8" stroke-width="2" fill="#d8d8d8"/><text x="174.3045950103672" y="39" font-size="16" dominant-baseline="central" fill="#505050">nsp2</text></g><g><rect x="276.40024078656944" y="24" width="335.57889104407735" height="30" rx="5" ry="5" stroke="#ffffff" stroke-opacity="0.8" stroke-width="2" fill="#cab2d6"/><text x="284.40024078656944" y="39" font-size="16" dominant-baseline="central" fill="#6a3d9a">PL</text></g><g><rect x="612.0366530666845" y="24" width="86.22433282054703" height="30" rx="5" ry="5" stroke="#ffffff" stroke-opacity="0.8" stroke-width="2" fill="#d8d8d8"/><text x="620.0366530666845" y="39" font-size="16" dominant-baseline="central" fill="#505050">nsp4</text></g><g><rect x="698.3185071232693" y="24" width="52.74697344659228" height="30" rx="5" ry="5" stroke="#ffffff" stroke-opacity="0.8" stroke-width="2" fill="#fdbf6f"/><text x="706.3185071232693" y="39" font-size="16" dominant-baseline="central" fill="#ff7f00">3CL</text></g><g><rect x="751.1230018058993" y="24" width="49.9859541167815" height="30" rx="5" ry="5" stroke="#ffffff" stroke-opacity="0.8" stroke-width="2" fill="#d8d8d8"/><text x="759.1230018058993" y="39" font-size="16" dominant-baseline="central" fill="#505050">nsp6</text></g><g><rect x="801.1664771587185" y="24" width="14.265266537355274" height="30" rx="5" ry="5" stroke="#ffffff" stroke-opacity="0.8" stroke-width="2" fill="#d8d8d8"/></g><g><rect x="815.4892649321116" y="24" width="34.110092970369806" height="30" rx="5" ry="5" stroke="#ffffff" stroke-opacity="0.8" stroke-width="2" fill="#d8d8d8"/></g><g><rect x="849.6568791385191" y="24" width="19.4421777807504" height="30" rx="5" ry="5" stroke="#ffffff" stroke-opacity="0.8" stroke-width="2" fill="#d8d8d8"/></g><g><rect x="869.1565781553073" y="24" width="23.928834191692886" height="30" rx="5" ry="5" stroke="#ffffff" stroke-opacity="0.8" stroke-width="2" fill="#d8d8d8"/></g><g><rect x="893.142933583038" y="24" width="160.71433348939877" height="30" rx="5" ry="5" stroke="#ffffff" stroke-opacity="0.8" stroke-width="2" fill="#a6cee3"/><text x="901.142933583038" y="39" font-size="16" dominant-baseline="central" fill="#1f78b4">RdRP</text></g><g><rect x="1053.9147883084743" y="24" width="103.65326733997722" height="30" rx="5" ry="5" stroke="#ffffff" stroke-opacity="0.8" stroke-width="2" fill="#d8d8d8"/><text x="1061.9147883084743" y="39" font-size="16" dominant-baseline="central" fill="#505050">nsp13</text></g><g><rect x="1157.6255768844894" y="24" width="90.88355293960262" height="30" rx="5" ry="5" stroke="#ffffff" stroke-opacity="0.8" stroke-width="2" fill="#d8d8d8"/><text x="1165.6255768844894" y="39" font-size="16" dominant-baseline="central" fill="#505050">nsp14</text></g><g><rect x="1248.5666510601297" y="24" width="59.649521771119" height="30" rx="5" ry="5" stroke="#ffffff" stroke-opacity="0.8" stroke-width="2" fill="#d8d8d8"/><text x="1256.5666510601297" y="39" font-size="16" dominant-baseline="central" fill="#505050">nsp15</text></g><g><rect x="1308.2736940672864" y="24" width="51.36646378168689" height="30" rx="5" ry="5" stroke="#ffffff" stroke-opacity="0.8" stroke-width="2" fill="#d8d8d8"/></g><g><rect x="1360.2728914453883" y="24" width="219.7886429001403" height="30" rx="5" ry="5" stroke="#ffffff" stroke-opacity="0.8" stroke-width="2" fill="#b2df8a"/><text x="1368.2728914453883" y="39" font-size="16" dominant-baseline="central" fill="#33a02c">Spike</text></g><g><rect x="1580.579225469868" y="24" width="47.570062203197494" height="30" rx="5" ry="5" stroke="#ffffff" stroke-opacity="0.8" stroke-width="2" fill="#d8d8d8"/></g><g><rect x="1629.5873185740086" y="24" width="13.0573205805631" height="30" rx="5" ry="5" stroke="#ffffff" stroke-opacity="0.8" stroke-width="2" fill="#d8d8d8"/></g><g><rect x="1645.5782221924956" y="24" width="38.42418567319896" height="30" rx="5" ry="5" stroke="#ffffff" stroke-opacity="0.8" stroke-width="2" fill="#d8d8d8"/><text x="1653.5782221924956" y="39" font-size="16" dominant-baseline="central" fill="#505050">M</text></g><g><rect x="1684.6351414621097" y="24" width="10.641428666978754" height="30" rx="5" ry="5" stroke="#ffffff" stroke-opacity="0.8" stroke-width="2" fill="#d8d8d8"/></g><g><rect x="1695.6792187813523" y="24" width="20.995251153769004" height="30" rx="5" ry="5" stroke="#ffffff" stroke-opacity="0.8" stroke-width="2" fill="#d8d8d8"/></g><g><rect x="1716.5019062270082" y="24" width="7.53528192094177" height="30" rx="5" ry="5" stroke="#ffffff" stroke-opacity="0.8" stroke-width="2" fill="#d8d8d8"/></g><g><rect x="1724.4398368002142" y="24" width="20.995251153768777" height="30" rx="5" ry="5" stroke="#ffffff" stroke-opacity="0.8" stroke-width="2" fill="#d8d8d8"/></g><g><rect x="1746.297906494549" y="24" width="72.4192361714936" height="30" rx="5" ry="5" stroke="#ffffff" stroke-opacity="0.8" stroke-width="2" fill="#d8d8d8"/><text x="1754.297906494549" y="39" font-size="16" dominant-baseline="central" fill="#505050">N</text></g><g><rect x="1820.1551735669855" y="24" width="6.67246338037603" height="30" rx="5" ry="5" stroke="#ffffff" stroke-opacity="0.8" stroke-width="2" fill="#d8d8d8"/></g><g><line x1="1826.885158183399" x2="1840" y1="39" y2="39" stroke-width="2" stroke="#333"/></g><g><path d="m 184.39274964885294 21 l 4 4 l 4 -4 m -4 4 v 115" stroke="#e0e0e0" fill="none" stroke-width="1"/><text transform="translate(188.39274964885294, 144) rotate(-60)" fill="#a0a0a0" dominant-baseline="central" text-anchor="end" font-family="Arial Narrow">nsp2:P129L</text></g><g><path d="m 209.0693599090362 21 l 4 4 l 4 -4 m -4 4 v 115" stroke="#e0e0e0" fill="none" stroke-width="1"/><text transform="translate(213.0693599090362, 144) rotate(-60)" fill="#a0a0a0" dominant-baseline="central" text-anchor="end" font-family="Arial Narrow">nsp2:E272G</text></g><g><path d="m 496.73306133369 21 l 4 4 l 4 -4 m -4 4 v 115" stroke="#e0e0e0" fill="none" stroke-width="1"/><text transform="translate(500.73306133369, 144) rotate(-60)" fill="#a0a0a0" dominant-baseline="central" text-anchor="end" font-family="Arial Narrow">PL:L1301F</text></g><g><path d="m 537.4580964483981 21 l 4 4 l 4 -4 m -4 4 v 115" stroke="#e0e0e0" fill="none" stroke-width="1"/><text transform="translate(541.4580964483981, 144) rotate(-60)" fill="#a0a0a0" dominant-baseline="central" text-anchor="end" font-family="Arial Narrow">PL:A1537S</text></g><g><path d="m 674.4736806902548 21 l 4 4 l 4 -4 m -4 4 v 35 c 0 5 0 5 -5 5 h -12 c -5 0 -5 0 -5 5 v 70" stroke="#e0e0e0" fill="none" stroke-width="1"/><text transform="translate(656.4736806902548, 144) rotate(-60)" fill="#a0a0a0" dominant-baseline="central" text-anchor="end" font-family="Arial Narrow">nsp4:S386F</text></g><g><path d="m 677.0621363119524 21 l 4 4 l 4 -4 m -4 4 v 115" stroke="#e0e0e0" fill="none" stroke-width="1"/><text transform="translate(681.0621363119524, 144) rotate(-60)" fill="#a0a0a0" dominant-baseline="central" text-anchor="end" font-family="Arial Narrow">nsp4:R401H</text></g><g><path d="m 692.7654337502508 21 l 4 4 l 4 -4 m -4 4 v 115" stroke="#e0e0e0" fill="none" stroke-width="1"/><text transform="translate(696.7654337502508, 144) rotate(-60)" fill="#a0a0a0" dominant-baseline="central" text-anchor="end" font-family="Arial Narrow">nsp4:T492I</text></g><g><path d="m 772.6624306066484 21 l 4 4 l 4 -4 m -4 4 v 115" stroke="#e0e0e0" fill="none" stroke-width="1"/><text transform="translate(776.6624306066484, 144) rotate(-60)" fill="#a0a0a0" dominant-baseline="central" text-anchor="end" font-family="Arial Narrow">nsp6:V149A</text></g><g><path d="m 944.6509263594409 21 l 4 4 l 4 -4 m -4 4 v 115" stroke="#000000" fill="none" stroke-width="1"/><text transform="translate(948.6509263594409, 144) rotate(-60)" fill="#000000" font-weight="bold" dominant-baseline="central" text-anchor="end" font-family="Arial Narrow">RdRP:P323L</text></g><g><path d="m 1357.6534011102935 21 l 4 4 l 4 -4 m -4 4 v 115" stroke="#000000" fill="none" stroke-width="1"/><text transform="translate(1361.6534011102935, 144) rotate(-60)" fill="#000000" font-weight="bold" dominant-baseline="central" text-anchor="end" font-family="Arial Narrow">P9L</text></g><g><path d="m 1372.6664437161392 21 l 4 4 l 4 -4 m -4 4 v 115" stroke="#000000" fill="none" stroke-width="1"/><text transform="translate(1376.6664437161392, 144) rotate(-60)" fill="#000000" font-weight="bold" dominant-baseline="central" text-anchor="end" font-family="Arial Narrow">E96Q</text></g><g><path d="m 1379.5689920406662 21 l 4 4 l 4 -4 m -4 4 v 105 c 0 5 0 5 5 5 h 12 c 5 0 5 0 5 5 v 0" stroke="#000000" fill="none" stroke-width="1"/><text transform="translate(1405.5689920406662, 144) rotate(-60)" fill="#000000" font-weight="bold" dominant-baseline="central" text-anchor="end" font-family="Arial Narrow">Δ136-144</text></g><g><path d="m 1388.8874322787774 21 l 4 4 l 4 -4 m -4 4 v 100 c 0 5 0 5 5 5 h 24.68155976188882 c 5 0 5 0 5 5 v 5" stroke="#000000" fill="none" stroke-width="1"/><text transform="translate(1427.5689920406662, 144) rotate(-60)" fill="#000000" font-weight="bold" dominant-baseline="central" text-anchor="end" font-family="Arial Narrow">R190S</text></g><g><path d="m 1392.3387064410406 21 l 4 4 l 4 -4 m -4 4 v 95 c 0 5 0 5 5 5 h 43.23028559962563 c 5 0 5 0 5 5 v 10" stroke="#000000" fill="none" stroke-width="1"/><text transform="translate(1449.5689920406662, 144) rotate(-60)" fill="#000000" font-weight="bold" dominant-baseline="central" text-anchor="end" font-family="Arial Narrow">I210T</text></g><g><path d="m 1415.8073707444316 21 l 4 4 l 4 -4 m -4 4 v 90 c 0 5 0 5 5 5 h 41.76162129623458 c 5 0 5 0 5 5 v 15" stroke="#000000" fill="none" stroke-width="1"/><text transform="translate(1471.5689920406662, 144) rotate(-60)" fill="#000000" font-weight="bold" dominant-baseline="central" text-anchor="end" font-family="Arial Narrow">R346S</text></g><g><path d="m 1424.090428733864 21 l 4 4 l 4 -4 m -4 4 v 85 c 0 5 0 5 5 5 h 55.47856330680224 c 5 0 5 0 5 5 v 20" stroke="#000000" fill="none" stroke-width="1"/><text transform="translate(1493.5689920406662, 144) rotate(-60)" fill="#000000" font-weight="bold" dominant-baseline="central" text-anchor="end" font-family="Arial Narrow">N394S</text></g><g><path d="m 1433.581432680088 21 l 4 4 l 4 -4 m -4 4 v 80 c 0 5 0 5 5 5 h 67.98755936057819 c 5 0 5 0 5 5 v 25" stroke="#000000" fill="none" stroke-width="1"/><text transform="translate(1515.5689920406662, 144) rotate(-60)" fill="#000000" font-weight="bold" dominant-baseline="central" text-anchor="end" font-family="Arial Narrow">Y449N</text></g><g><path d="m 1440.6565447127282 21 l 4 4 l 4 -4 m -4 4 v 75 c 0 5 0 5 5 5 h 82.91244732793803 c 5 0 5 0 5 5 v 30" stroke="#000000" fill="none" stroke-width="1"/><text transform="translate(1537.5689920406662, 144) rotate(-60)" fill="#000000" font-weight="bold" dominant-baseline="central" text-anchor="end" font-family="Arial Narrow">F490R</text></g><g><path d="m 1442.554745501973 21 l 4 4 l 4 -4 m -4 4 v 70 c 0 5 0 5 5 5 h 103.01424653869321 c 5 0 5 0 5 5 v 35" stroke="#000000" fill="none" stroke-width="1"/><text transform="translate(1559.5689920406662, 144) rotate(-60)" fill="#000000" font-weight="bold" dominant-baseline="central" text-anchor="end" font-family="Arial Narrow">N501Y</text></g><g><path d="m 1462.0544445187613 21 l 4 4 l 4 -4 m -4 4 v 65 c 0 5 0 5 5 5 h 105.51454752190489 c 5 0 5 0 5 5 v 40" stroke="#000000" fill="none" stroke-width="1"/><text transform="translate(1581.5689920406662, 144) rotate(-60)" fill="#000000" font-weight="bold" dominant-baseline="central" text-anchor="end" font-family="Arial Narrow">D614G</text></g><g><path d="m 1473.6162129623438 21 l 4 4 l 4 -4 m -4 4 v 60 c 0 5 0 5 5 5 h 115.95277907832246 c 5 0 5 0 5 5 v 45" stroke="#000000" fill="none" stroke-width="1"/><text transform="translate(1603.5689920406662, 144) rotate(-60)" fill="#000000" font-weight="bold" dominant-baseline="central" text-anchor="end" font-family="Arial Narrow">P681H</text></g><g><path d="m 1504.3325530064878 21 l 4 4 l 4 -4 m -4 4 v 55 c 0 5 0 5 5 5 h 107.23643903417837 c 5 0 5 0 5 5 v 50" stroke="#000000" fill="none" stroke-width="1"/><text transform="translate(1625.5689920406662, 144) rotate(-60)" fill="#000000" font-weight="bold" dominant-baseline="central" text-anchor="end" font-family="Arial Narrow">T859N</text></g><g><path d="m 1517.619958531202 21 l 4 4 l 4 -4 m -4 4 v 50 c 0 5 0 5 5 5 h 115.94903350946424 c 5 0 5 0 5 5 v 55" stroke="#000000" fill="none" stroke-width="1"/><text transform="translate(1647.5689920406662, 144) rotate(-60)" fill="#000000" font-weight="bold" dominant-baseline="central" text-anchor="end" font-family="Arial Narrow">D936H</text></g><g><path d="m 1581.9287004213763 21 l 4 4 l 4 -4 m -4 4 v 45 c 0 5 0 5 5 5 h 73.64029161928988 c 5 0 5 0 5 5 v 60" stroke="#e0e0e0" fill="none" stroke-width="1"/><text transform="translate(1669.5689920406662, 144) rotate(-60)" fill="#a0a0a0" dominant-baseline="central" text-anchor="end" font-family="Arial Narrow">ORF3a:T32I</text></g><g><path d="m 1586.2427931242057 21 l 4 4 l 4 -4 m -4 4 v 40 c 0 5 0 5 5 5 h 91.3261989164605 c 5 0 5 0 5 5 v 65" stroke="#e0e0e0" fill="none" stroke-width="1"/><text transform="translate(1691.5689920406662, 144) rotate(-60)" fill="#a0a0a0" dominant-baseline="central" text-anchor="end" font-family="Arial Narrow">ORF3a:Q57H</text></g><g><path d="m 1655.555882549662 21 l 4 4 l 4 -4 m -4 4 v 35 c 0 5 0 5 5 5 h 44.013109491004116 c 5 0 5 0 5 5 v 70" stroke="#e0e0e0" fill="none" stroke-width="1"/><text transform="translate(1713.5689920406662, 144) rotate(-60)" fill="#a0a0a0" dominant-baseline="central" text-anchor="end" font-family="Arial Narrow">M:I82T</text></g><g><path d="m 1724.9264932111564 21 l 4 4 l 4 -4 m -4 4 v 115" stroke="#e0e0e0" fill="none" stroke-width="1"/><text transform="translate(1728.9264932111564, 144) rotate(-60)" fill="#a0a0a0" dominant-baseline="central" text-anchor="end" font-family="Arial Narrow">ORF8:Q27stop</text></g><g><path d="m 1745.9217443649254 21 l 4 4 l 4 -4 m -4 4 v 115" stroke="#e0e0e0" fill="none" stroke-width="1"/><text transform="translate(1749.9217443649254, 144) rotate(-60)" fill="#a0a0a0" dominant-baseline="central" text-anchor="end" font-family="Arial Narrow">N:D22Y</text></g><g><path d="m 1777.5009029496355 21 l 4 4 l 4 -4 m -4 4 v 115" stroke="#e0e0e0" fill="none" stroke-width="1"/><text transform="translate(1781.5009029496355, 144) rotate(-60)" fill="#a0a0a0" dominant-baseline="central" text-anchor="end" font-family="Arial Narrow">N:T205I</text></g><g><path d="m 1807.3544244532138 21 l 4 4 l 4 -4 m -4 4 v 115" stroke="#e0e0e0" fill="none" stroke-width="1"/><text transform="translate(1811.3544244532138, 144) rotate(-60)" fill="#a0a0a0" dominant-baseline="central" text-anchor="end" font-family="Arial Narrow">N:E378Q</text></g></svg></g></svg>