<?xml version="1.0" standalone="no"?><!DOCTYPE svg PUBLIC "-//W3C//DTD SVG 1.1//EN" "http://www.w3.org/Graphics/SVG/1.1/DTD/svg11.dtd"><svg font-family="&quot;Source Sans Pro&quot;, &quot;Helvetica Neue&quot;, Helvetica" viewBox="0 0 1992.5346799545182 343" style="min-height: 171.5px;" version="1.1" xmlns="http://www.w3.org/2000/svg" xmlns:xlink="http://www.w3.org/1999/xlink"><g id="sd-region-group-1_29903"><svg id="sd-position-axis" y="20"><path d="m 120 18 h 1720" fill="none" stroke="#000000" stroke-width="2"/><text x="120" y="12" font-size="12" fill="#000000" text-anchor="middle">1</text><line x1="120" x2="120" y1="17" y2="26" stroke="#000000" stroke-width="2"/><text x="177.4637148016855" y="12" font-size="12" fill="#000000" text-anchor="middle">1000</text><line x1="177.4637148016855" x2="177.4637148016855" y1="17" y2="26" stroke="#000000" stroke-width="2"/><text x="234.98495083940873" y="12" font-size="12" fill="#000000" text-anchor="middle">2000</text><line x1="234.98495083940873" x2="234.98495083940873" y1="17" y2="26" stroke="#000000" stroke-width="2"/><text x="292.50618687713194" y="12" font-size="12" fill="#000000" text-anchor="middle">3000</text><line x1="292.50618687713194" x2="292.50618687713194" y1="17" y2="26" stroke="#000000" stroke-width="2"/><text x="350.0274229148552" y="12" font-size="12" fill="#000000" text-anchor="middle">4000</text><line x1="350.0274229148552" x2="350.0274229148552" y1="17" y2="26" stroke="#000000" stroke-width="2"/><text x="407.5486589525784" y="12" font-size="12" fill="#000000" text-anchor="middle">5000</text><line x1="407.5486589525784" x2="407.5486589525784" y1="17" y2="26" stroke="#000000" stroke-width="2"/><text x="465.06989499030163" y="12" font-size="12" fill="#000000" text-anchor="middle">6000</text><line x1="465.06989499030163" x2="465.06989499030163" y1="17" y2="26" stroke="#000000" stroke-width="2"/><text x="522.5911310280248" y="12" font-size="12" fill="#000000" text-anchor="middle">7000</text><line x1="522.5911310280248" x2="522.5911310280248" y1="17" y2="26" stroke="#000000" stroke-width="2"/><text x="580.112367065748" y="12" font-size="12" fill="#000000" text-anchor="middle">8000</text><line x1="580.112367065748" x2="580.112367065748" y1="17" y2="26" stroke="#000000" stroke-width="2"/><text x="637.6336031034714" y="12" font-size="12" fill="#000000" text-anchor="middle">9000</text><line x1="637.6336031034714" x2="637.6336031034714" y1="17" y2="26" stroke="#000000" stroke-width="2"/><text x="695.1548391411945" y="12" font-size="12" fill="#000000" text-anchor="middle">10000</text><line x1="695.1548391411945" x2="695.1548391411945" y1="17" y2="26" stroke="#000000" stroke-width="2"/><text x="752.6760751789179" y="12" font-size="12" fill="#000000" text-anchor="middle">11000</text><line x1="752.6760751789179" x2="752.6760751789179" y1="17" y2="26" stroke="#000000" stroke-width="2"/><text x="810.197311216641" y="12" font-size="12" fill="#000000" text-anchor="middle">12000</text><line x1="810.197311216641" x2="810.197311216641" y1="17" y2="26" stroke="#000000" stroke-width="2"/><text x="867.7185472543642" y="12" font-size="12" fill="#000000" text-anchor="middle">13000</text><line x1="867.7185472543642" x2="867.7185472543642" y1="17" y2="26" stroke="#000000" stroke-width="2"/><text x="925.2397832920875" y="12" font-size="12" fill="#000000" text-anchor="middle">14000</text><line x1="925.2397832920875" x2="925.2397832920875" y1="17" y2="26" stroke="#000000" stroke-width="2"/><text x="982.7610193298108" y="12" font-size="12" fill="#000000" text-anchor="middle">15000</text><line x1="982.7610193298108" x2="982.7610193298108" y1="17" y2="26" stroke="#000000" stroke-width="2"/><text x="1040.282255367534" y="12" font-size="12" fill="#000000" text-anchor="middle">16000</text><line x1="1040.282255367534" x2="1040.282255367534" y1="17" y2="26" stroke="#000000" stroke-width="2"/><text x="1097.803491405257" y="12" font-size="12" fill="#000000" text-anchor="middle">17000</text><line x1="1097.803491405257" x2="1097.803491405257" y1="17" y2="26" stroke="#000000" stroke-width="2"/><text x="1155.3247274429805" y="12" font-size="12" fill="#000000" text-anchor="middle">18000</text><line x1="1155.3247274429805" x2="1155.3247274429805" y1="17" y2="26" stroke="#000000" stroke-width="2"/><text x="1212.8459634807036" y="12" font-size="12" fill="#000000" text-anchor="middle">19000</text><line x1="1212.8459634807036" x2="1212.8459634807036" y1="17" y2="26" stroke="#000000" stroke-width="2"/><text x="1270.3671995184268" y="12" font-size="12" fill="#000000" text-anchor="middle">20000</text><line x1="1270.3671995184268" x2="1270.3671995184268" y1="17" y2="26" stroke="#000000" stroke-width="2"/><text x="1327.88843555615" y="12" font-size="12" fill="#000000" text-anchor="middle">21000</text><line x1="1327.88843555615" x2="1327.88843555615" y1="17" y2="26" stroke="#000000" stroke-width="2"/><text x="1385.4096715938733" y="12" font-size="12" fill="#000000" text-anchor="middle">22000</text><line x1="1385.4096715938733" x2="1385.4096715938733" y1="17" y2="26" stroke="#000000" stroke-width="2"/><text x="1442.9309076315967" y="12" font-size="12" fill="#000000" text-anchor="middle">23000</text><line x1="1442.9309076315967" x2="1442.9309076315967" y1="17" y2="26" stroke="#000000" stroke-width="2"/><text x="1500.4521436693196" y="12" font-size="12" fill="#000000" text-anchor="middle">24000</text><line x1="1500.4521436693196" x2="1500.4521436693196" y1="17" y2="26" stroke="#000000" stroke-width="2"/><text x="1557.973379707043" y="12" font-size="12" fill="#000000" text-anchor="middle">25000</text><line x1="1557.973379707043" x2="1557.973379707043" y1="17" y2="26" stroke="#000000" stroke-width="2"/><text x="1615.4946157447664" y="12" font-size="12" fill="#000000" text-anchor="middle">26000</text><line x1="1615.4946157447664" x2="1615.4946157447664" y1="17" y2="26" stroke="#000000" stroke-width="2"/><text x="1673.0158517824896" y="12" font-size="12" fill="#000000" text-anchor="middle">27000</text><line x1="1673.0158517824896" x2="1673.0158517824896" y1="17" y2="26" stroke="#000000" stroke-width="2"/><text x="1730.5370878202125" y="12" font-size="12" fill="#000000" text-anchor="middle">28000</text><line x1="1730.5370878202125" x2="1730.5370878202125" y1="17" y2="26" stroke="#000000" stroke-width="2"/><text x="1788.0583238579359" y="12" font-size="12" fill="#000000" text-anchor="middle">29000</text><line x1="1788.0583238579359" x2="1788.0583238579359" y1="17" y2="26" stroke="#000000" stroke-width="2"/><text x="1840" y="12" font-size="12" fill="#000000" text-anchor="middle">29903</text><line x1="1840" x2="1840" y1="17" y2="26" stroke="#000000" stroke-width="2"/></svg><svg id="sd-position-group-NA" y="45"><g><line x1="120" x2="135.18560631395894" y1="39" y2="39" stroke-width="2" stroke="#333"/></g><g><rect x="135.24312754999664" y="24" width="31.00394622433282" height="30" rx="5" ry="5" stroke="#ffffff" stroke-opacity="0.8" stroke-width="2" fill="#d8d8d8"/></g><g><rect x="166.3045950103672" y="24" width="110.03812454016455" height="30" rx="5" ry="5" stroke="#ffffff" stroke-opacity="0.8" stroke-width="2" fill="#d8d8d8"/><text x="174.3045950103672" y="39" font-size="16" dominant-baseline="central" fill="#505050">nsp2</text></g><g><rect x="276.40024078656944" y="24" width="335.57889104407735" height="30" rx="5" ry="5" stroke="#ffffff" stroke-opacity="0.8" stroke-width="2" fill="#cab2d6"/><text x="284.40024078656944" y="39" font-size="16" dominant-baseline="central" fill="#6a3d9a">PL</text></g><g><rect x="612.0366530666845" y="24" width="86.22433282054703" height="30" rx="5" ry="5" stroke="#ffffff" stroke-opacity="0.8" stroke-width="2" fill="#d8d8d8"/><text x="620.0366530666845" y="39" font-size="16" dominant-baseline="central" fill="#505050">nsp4</text></g><g><rect x="698.3185071232693" y="24" width="52.74697344659228" height="30" rx="5" ry="5" stroke="#ffffff" stroke-opacity="0.8" stroke-width="2" fill="#fdbf6f"/><text x="706.3185071232693" y="39" font-size="16" dominant-baseline="central" fill="#ff7f00">3CL</text></g><g><rect x="751.1230018058993" y="24" width="49.9859541167815" height="30" rx="5" ry="5" stroke="#ffffff" stroke-opacity="0.8" stroke-width="2" fill="#d8d8d8"/><text x="759.1230018058993" y="39" font-size="16" dominant-baseline="central" fill="#505050">nsp6</text></g><g><rect x="801.1664771587185" y="24" width="14.265266537355274" height="30" rx="5" ry="5" stroke="#ffffff" stroke-opacity="0.8" stroke-width="2" fill="#d8d8d8"/></g><g><rect x="815.4892649321116" y="24" width="34.110092970369806" height="30" rx="5" ry="5" stroke="#ffffff" stroke-opacity="0.8" stroke-width="2" fill="#d8d8d8"/></g><g><rect x="849.6568791385191" y="24" width="19.4421777807504" height="30" rx="5" ry="5" stroke="#ffffff" stroke-opacity="0.8" stroke-width="2" fill="#d8d8d8"/></g><g><rect x="869.1565781553073" y="24" width="23.928834191692886" height="30" rx="5" ry="5" stroke="#ffffff" stroke-opacity="0.8" stroke-width="2" fill="#d8d8d8"/></g><g><rect x="893.142933583038" y="24" width="160.71433348939877" height="30" rx="5" ry="5" stroke="#ffffff" stroke-opacity="0.8" stroke-width="2" fill="#a6cee3"/><text x="901.142933583038" y="39" font-size="16" dominant-baseline="central" fill="#1f78b4">RdRP</text></g><g><rect x="1053.9147883084743" y="24" width="103.65326733997722" height="30" rx="5" ry="5" stroke="#ffffff" stroke-opacity="0.8" stroke-width="2" fill="#d8d8d8"/><text x="1061.9147883084743" y="39" font-size="16" dominant-baseline="central" fill="#505050">nsp13</text></g><g><rect x="1157.6255768844894" y="24" width="90.88355293960262" height="30" rx="5" ry="5" stroke="#ffffff" stroke-opacity="0.8" stroke-width="2" fill="#d8d8d8"/><text x="1165.6255768844894" y="39" font-size="16" dominant-baseline="central" fill="#505050">nsp14</text></g><g><rect x="1248.5666510601297" y="24" width="59.649521771119" height="30" rx="5" ry="5" stroke="#ffffff" stroke-opacity="0.8" stroke-width="2" fill="#d8d8d8"/><text x="1256.5666510601297" y="39" font-size="16" dominant-baseline="central" fill="#505050">nsp15</text></g><g><rect x="1308.2736940672864" y="24" width="51.36646378168689" height="30" rx="5" ry="5" stroke="#ffffff" stroke-opacity="0.8" stroke-width="2" fill="#d8d8d8"/></g><g><rect x="1360.2728914453883" y="24" width="219.7886429001403" height="30" rx="5" ry="5" stroke="#ffffff" stroke-opacity="0.8" stroke-width="2" fill="#b2df8a"/><text x="1368.2728914453883" y="39" font-size="16" dominant-baseline="central" fill="#33a02c">Spike</text></g><g><rect x="1580.579225469868" y="24" width="47.570062203197494" height="30" rx="5" ry="5" stroke="#ffffff" stroke-opacity="0.8" stroke-width="2" fill="#d8d8d8"/></g><g><rect x="1629.5873185740086" y="24" width="13.0573205805631" height="30" rx="5" ry="5" stroke="#ffffff" stroke-opacity="0.8" stroke-width="2" fill="#d8d8d8"/></g><g><rect x="1645.5782221924956" y="24" width="38.42418567319896" height="30" rx="5" ry="5" stroke="#ffffff" stroke-opacity="0.8" stroke-width="2" fill="#d8d8d8"/><text x="1653.5782221924956" y="39" font-size="16" dominant-baseline="central" fill="#505050">M</text></g><g><rect x="1684.6351414621097" y="24" width="10.641428666978754" height="30" rx="5" ry="5" stroke="#ffffff" stroke-opacity="0.8" stroke-width="2" fill="#d8d8d8"/></g><g><rect x="1695.6792187813523" y="24" width="20.995251153769004" height="30" rx="5" ry="5" stroke="#ffffff" stroke-opacity="0.8" stroke-width="2" fill="#d8d8d8"/></g><g><rect x="1716.5019062270082" y="24" width="7.53528192094177" height="30" rx="5" ry="5" stroke="#ffffff" stroke-opacity="0.8" stroke-width="2" fill="#d8d8d8"/></g><g><rect x="1724.4398368002142" y="24" width="20.995251153768777" height="30" rx="5" ry="5" stroke="#ffffff" stroke-opacity="0.8" stroke-width="2" fill="#d8d8d8"/></g><g><rect x="1746.297906494549" y="24" width="72.4192361714936" height="30" rx="5" ry="5" stroke="#ffffff" stroke-opacity="0.8" stroke-width="2" fill="#d8d8d8"/><text x="1754.297906494549" y="39" font-size="16" dominant-baseline="central" fill="#505050">N</text></g><g><rect x="1820.1551735669855" y="24" width="6.67246338037603" height="30" rx="5" ry="5" stroke="#ffffff" stroke-opacity="0.8" stroke-width="2" fill="#d8d8d8"/></g><g><line x1="1826.885158183399" x2="1840" y1="39" y2="39" stroke-width="2" stroke="#333"/></g><g><path d="m 148.6720620694268 21 l 4 4 l 4 -4 m -4 4 v 155" stroke="#e0e0e0" fill="none" stroke-width="1"/><text transform="translate(152.6720620694268, 184) rotate(-60)" fill="#a0a0a0" dominant-baseline="central" text-anchor="end" font-family="Arial Narrow">nsp1:E102K</text></g><g><path d="m 346.0849441508929 21 l 4 4 l 4 -4 m -4 4 v 155" stroke="#e0e0e0" fill="none" stroke-width="1"/><text transform="translate(350.0849441508929, 184) rotate(-60)" fill="#a0a0a0" dominant-baseline="central" text-anchor="end" font-family="Arial Narrow">PL:T428I</text></g><g><path d="m 413.5573540231423 21 l 4 4 l 4 -4 m -4 4 v 155" stroke="#e0e0e0" fill="none" stroke-width="1"/><text transform="translate(417.5573540231423, 184) rotate(-60)" fill="#a0a0a0" dominant-baseline="central" text-anchor="end" font-family="Arial Narrow">PL:T819I</text></g><g><path d="m 683.4469935121397 21 l 4 4 l 4 -4 m -4 4 v 35 c 0 5 0 5 -5 5 h -12 c -5 0 -5 0 -5 5 v 110" stroke="#e0e0e0" fill="none" stroke-width="1"/><text transform="translate(665.4469935121397, 184) rotate(-60)" fill="#a0a0a0" dominant-baseline="central" text-anchor="end" font-family="Arial Narrow">nsp4:L438P</text></g><g><path d="m 696.7343990368537 21 l 4 4 l 4 -4 m -4 4 v 155" stroke="#000000" fill="none" stroke-width="1"/><text transform="translate(700.7343990368537, 184) rotate(-60)" fill="#000000" font-weight="bold" dominant-baseline="central" text-anchor="end" font-family="Arial Narrow">3CL:G15S</text></g><g><path d="m 765.2421911577821 21 l 4 4 l 4 -4 m -4 4 v 155" stroke="#e0e0e0" fill="none" stroke-width="1"/><text transform="translate(769.2421911577821, 184) rotate(-60)" fill="#a0a0a0" dominant-baseline="central" text-anchor="end" font-family="Arial Narrow">nsp6:Δ106-108</text></g><g><path d="m 944.6509263594409 21 l 4 4 l 4 -4 m -4 4 v 155" stroke="#000000" fill="none" stroke-width="1"/><text transform="translate(948.6509263594409, 184) rotate(-60)" fill="#000000" font-weight="bold" dominant-baseline="central" text-anchor="end" font-family="Arial Narrow">RdRP:P323L</text></g><g><path d="m 1357.6534011102935 21 l 4 4 l 4 -4 m -4 4 v 155" stroke="#000000" fill="none" stroke-width="1"/><text transform="translate(1361.6534011102935, 184) rotate(-60)" fill="#000000" font-weight="bold" dominant-baseline="central" text-anchor="end" font-family="Arial Narrow">P9L</text></g><g><path d="m 1360.4144204401043 21 l 4 4 l 4 -4 m -4 4 v 145 c 0 5 0 5 5 5 h 12 c 5 0 5 0 5 5 v 0" stroke="#000000" fill="none" stroke-width="1"/><text transform="translate(1386.4144204401043, 184) rotate(-60)" fill="#000000" font-weight="bold" dominant-baseline="central" text-anchor="end" font-family="Arial Narrow">P25L</text></g><g><path d="m 1379.5689920406662 21 l 4 4 l 4 -4 m -4 4 v 140 c 0 5 0 5 5 5 h 14.845428399438106 c 5 0 5 0 5 5 v 5" stroke="#000000" fill="none" stroke-width="1"/><text transform="translate(1408.4144204401043, 184) rotate(-60)" fill="#000000" font-weight="bold" dominant-baseline="central" text-anchor="end" font-family="Arial Narrow">C136F</text></g><g><path d="m 1380.9495017055715 21 l 4 4 l 4 -4 m -4 4 v 135 c 0 5 0 5 5 5 h 35.46491873453283 c 5 0 5 0 5 5 v 10" stroke="#000000" fill="none" stroke-width="1"/><text transform="translate(1430.4144204401043, 184) rotate(-60)" fill="#000000" font-weight="bold" dominant-baseline="central" text-anchor="end" font-family="Arial Narrow">Δ144</text></g><g><path d="m 1388.8874322787774 21 l 4 4 l 4 -4 m -4 4 v 130 c 0 5 0 5 5 5 h 49.526988161326926 c 5 0 5 0 5 5 v 15" stroke="#000000" fill="none" stroke-width="1"/><text transform="translate(1452.4144204401043, 184) rotate(-60)" fill="#000000" font-weight="bold" dominant-baseline="central" text-anchor="end" font-family="Arial Narrow">R190S</text></g><g><path d="m 1393.2015249816066 21 l 4 4 l 4 -4 m -4 4 v 125 c 0 5 0 5 5 5 h 67.21289545849777 c 5 0 5 0 5 5 v 20" stroke="#000000" fill="none" stroke-width="1"/><text transform="translate(1474.4144204401043, 184) rotate(-60)" fill="#000000" font-weight="bold" dominant-baseline="central" text-anchor="end" font-family="Arial Narrow">D215G</text></g><g><path d="m 1398.0333088087755 21 l 4 4 l 4 -4 m -4 4 v 120 c 0 5 0 5 5 5 h 84.38111163132885 c 5 0 5 0 5 5 v 25" stroke="#000000" fill="none" stroke-width="1"/><text transform="translate(1496.4144204401043, 184) rotate(-60)" fill="#000000" font-weight="bold" dominant-baseline="central" text-anchor="end" font-family="Arial Narrow">Δ243/244</text></g><g><path d="m 1433.581432680088 21 l 4 4 l 4 -4 m -4 4 v 115 c 0 5 0 5 5 5 h 70.8329877600163 c 5 0 5 0 5 5 v 30" stroke="#000000" fill="none" stroke-width="1"/><text transform="translate(1518.4144204401043, 184) rotate(-60)" fill="#000000" font-weight="bold" dominant-baseline="central" text-anchor="end" font-family="Arial Narrow">Y449H</text></g><g><path d="m 1439.6211624640491 21 l 4 4 l 4 -4 m -4 4 v 110 c 0 5 0 5 5 5 h 86.7932579760552 c 5 0 5 0 5 5 v 35" stroke="#000000" fill="none" stroke-width="1"/><text transform="translate(1540.4144204401043, 184) rotate(-60)" fill="#000000" font-weight="bold" dominant-baseline="central" text-anchor="end" font-family="Arial Narrow">E484K</text></g><g><path d="m 1442.554745501973 21 l 4 4 l 4 -4 m -4 4 v 105 c 0 5 0 5 5 5 h 105.85967493813132 c 5 0 5 0 5 5 v 40" stroke="#000000" fill="none" stroke-width="1"/><text transform="translate(1562.4144204401043, 184) rotate(-60)" fill="#000000" font-weight="bold" dominant-baseline="central" text-anchor="end" font-family="Arial Narrow">N501Y</text></g><g><path d="m 1462.0544445187613 21 l 4 4 l 4 -4 m -4 4 v 100 c 0 5 0 5 5 5 h 108.359975921343 c 5 0 5 0 5 5 v 45" stroke="#000000" fill="none" stroke-width="1"/><text transform="translate(1584.4144204401043, 184) rotate(-60)" fill="#000000" font-weight="bold" dominant-baseline="central" text-anchor="end" font-family="Arial Narrow">D614G</text></g><g><path d="m 1469.1295565514013 21 l 4 4 l 4 -4 m -4 4 v 95 c 0 5 0 5 5 5 h 123.28486388870306 c 5 0 5 0 5 5 v 50" stroke="#000000" fill="none" stroke-width="1"/><text transform="translate(1606.4144204401043, 184) rotate(-60)" fill="#000000" font-weight="bold" dominant-baseline="central" text-anchor="end" font-family="Arial Narrow">H655Y</text></g><g><path d="m 1473.2710855461175 21 l 4 4 l 4 -4 m -4 4 v 90 c 0 5 0 5 5 5 h 141.14333489398678 c 5 0 5 0 5 5 v 55" stroke="#000000" fill="none" stroke-width="1"/><text transform="translate(1628.4144204401043, 184) rotate(-60)" fill="#000000" font-weight="bold" dominant-baseline="central" text-anchor="end" font-family="Arial Narrow">N679K</text></g><g><path d="m 1479.6559427463046 21 l 4 4 l 4 -4 m -4 4 v 85 c 0 5 0 5 5 5 h 156.7584776937997 c 5 0 5 0 5 5 v 60" stroke="#000000" fill="none" stroke-width="1"/><text transform="translate(1650.4144204401043, 184) rotate(-60)" fill="#000000" font-weight="bold" dominant-baseline="central" text-anchor="end" font-family="Arial Narrow">T716I</text></g><g><path d="m 1504.3325530064878 21 l 4 4 l 4 -4 m -4 4 v 80 c 0 5 0 5 5 5 h 154.08186743361648 c 5 0 5 0 5 5 v 65" stroke="#000000" fill="none" stroke-width="1"/><text transform="translate(1672.4144204401043, 184) rotate(-60)" fill="#000000" font-weight="bold" dominant-baseline="central" text-anchor="end" font-family="Arial Narrow">T859N</text></g><g><path d="m 1615.923750919671 21 l 4 4 l 4 -4 m -4 4 v 75 c 0 5 0 5 5 5 h 64.49066952043336 c 5 0 5 0 5 5 v 70" stroke="#e0e0e0" fill="none" stroke-width="1"/><text transform="translate(1694.4144204401043, 184) rotate(-60)" fill="#a0a0a0" dominant-baseline="central" text-anchor="end" font-family="Arial Narrow">ORF3a:T229N</text></g><g><path d="m 1620.4104073306132 21 l 4 4 l 4 -4 m -4 4 v 70 c 0 5 0 5 5 5 h 82.0040131094911 c 5 0 5 0 5 5 v 75" stroke="#e0e0e0" fill="none" stroke-width="1"/><text transform="translate(1716.4144204401043, 184) rotate(-60)" fill="#a0a0a0" dominant-baseline="central" text-anchor="end" font-family="Arial Narrow">ORF3a:Δ255/256</text></g><g><path d="m 1629.0385927362718 21 l 4 4 l 4 -4 m -4 4 v 65 c 0 5 0 5 5 5 h 95.37582770383256 c 5 0 5 0 5 5 v 80" stroke="#e0e0e0" fill="none" stroke-width="1"/><text transform="translate(1738.4144204401043, 184) rotate(-60)" fill="#a0a0a0" dominant-baseline="central" text-anchor="end" font-family="Arial Narrow">E:L21I</text></g><g><path d="m 1646.4100060196643 21 l 4 4 l 4 -4 m -4 4 v 60 c 0 5 0 5 5 5 h 100.00441442044007 c 5 0 5 0 5 5 v 85" stroke="#e0e0e0" fill="none" stroke-width="1"/><text transform="translate(1760.4144204401043, 184) rotate(-60)" fill="#a0a0a0" dominant-baseline="central" text-anchor="end" font-family="Arial Narrow">M:L29F</text></g><g><path d="m 1655.555882549662 21 l 4 4 l 4 -4 m -4 4 v 55 c 0 5 0 5 5 5 h 112.85853789044222 c 5 0 5 0 5 5 v 90" stroke="#e0e0e0" fill="none" stroke-width="1"/><text transform="translate(1782.4144204401043, 184) rotate(-60)" fill="#a0a0a0" dominant-baseline="central" text-anchor="end" font-family="Arial Narrow">M:I82T</text></g><g><path d="m 1744.3686709919068 21 l 4 4 l 4 -4 m -4 4 v 50 c 0 5 0 5 5 5 h 46.04574944819751 c 5 0 5 0 5 5 v 95" stroke="#e0e0e0" fill="none" stroke-width="1"/><text transform="translate(1804.4144204401043, 184) rotate(-60)" fill="#a0a0a0" dominant-baseline="central" text-anchor="end" font-family="Arial Narrow">N:P13L</text></g><g><path d="m 1777.1557755334093 21 l 4 4 l 4 -4 m -4 4 v 45 c 0 5 0 5 5 5 h 35.258644906695054 c 5 0 5 0 5 5 v 100" stroke="#e0e0e0" fill="none" stroke-width="1"/><text transform="translate(1826.4144204401043, 184) rotate(-60)" fill="#a0a0a0" dominant-baseline="central" text-anchor="end" font-family="Arial Narrow">N:R203K</text></g><g><path d="m 1777.3283392415224 21 l 4 4 l 4 -4 m -4 4 v 40 c 0 5 0 5 5 5 h 57.08608119858195 c 5 0 5 0 5 5 v 105" stroke="#e0e0e0" fill="none" stroke-width="1"/><text transform="translate(1848.4144204401043, 184) rotate(-60)" fill="#a0a0a0" dominant-baseline="central" text-anchor="end" font-family="Arial Narrow">N:G204R</text></g><g><path d="m 1808.3898067018927 21 l 4 4 l 4 -4 m -4 4 v 35 c 0 5 0 5 5 5 h 48.024613738211656 c 5 0 5 0 5 5 v 110" stroke="#e0e0e0" fill="none" stroke-width="1"/><text transform="translate(1870.4144204401043, 184) rotate(-60)" fill="#a0a0a0" dominant-baseline="central" text-anchor="end" font-family="Arial Narrow">N:Q384H</text></g></svg></g></svg>